<svg width="182" height="165" viewBox="0 0 182 165" fill="none" xmlns="http://www.w3.org/2000/svg">
<path d="M15.9844 164.678C15.3203 164.775 14.6412 164.826 13.9502 164.826C13.487 164.826 13.0288 164.803 12.5771 164.759C13.0286 164.803 13.4863 164.825 13.9492 164.825C14.6404 164.825 15.3201 164.775 15.9844 164.678ZM11.6279 164.632C11.9289 164.682 12.2329 164.724 12.54 164.755C12.2329 164.724 11.9289 164.682 11.6279 164.632ZM9.25781 164.017C9.35119 164.05 9.44478 164.083 9.53906 164.114C9.44478 164.083 9.35119 164.05 9.25781 164.017ZM65.6318 1.00021C104.419 1.00021 130.282 35.501 130.283 70.7278V97.7776C130.283 104.94 124.477 110.746 117.314 110.746C110.153 110.746 104.347 104.94 104.347 97.7776V70.7278C104.346 46.6659 87.1275 26.9367 65.6318 26.9367C44.1364 26.9372 26.9189 46.6661 26.918 70.7278V150.858C26.9178 158.02 21.1113 163.825 13.9492 163.825C6.7875 163.825 0.981601 158.019 0.981445 150.858V70.7278L0.986328 69.9026C1.38728 34.9644 27.1476 1.00062 65.6318 1.00021ZM26.7588 156.433C26.8284 156.273 26.8962 156.112 26.96 155.949C26.8962 156.112 26.8284 156.273 26.7588 156.433ZM0.914062 155.885C0.992473 156.088 1.07558 156.289 1.16309 156.488C1.07557 156.289 0.992478 156.088 0.914062 155.885ZM27.1182 155.522C27.1799 155.347 27.239 155.172 27.2939 154.994C27.239 155.172 27.1799 155.347 27.1182 155.522ZM27.4854 154.317C27.4399 154.495 27.3902 154.672 27.3379 154.848C27.3902 154.672 27.4399 154.495 27.4854 154.317ZM27.7588 152.968C27.7128 153.271 27.6569 153.571 27.5918 153.867C27.6569 153.571 27.7128 153.271 27.7588 152.968ZM0.0400391 152.135C0.0636036 152.395 0.094226 152.653 0.131836 152.908C0.0942231 152.653 0.0636053 152.395 0.0400391 152.135ZM27.9131 151.218C27.9051 151.533 27.8859 151.845 27.8574 152.155C27.8859 151.845 27.9051 151.533 27.9131 151.218ZM118.504 111.696C118.112 111.729 117.716 111.746 117.315 111.746L117.314 111.745C117.715 111.745 118.112 111.729 118.504 111.696ZM116.074 111.691C116.365 111.716 116.658 111.734 116.954 111.741C116.658 111.734 116.365 111.716 116.074 111.691ZM113.982 111.345C114.171 111.391 114.361 111.434 114.553 111.473C114.361 111.434 114.171 111.391 113.982 111.345ZM108.485 108.602C108.597 108.693 108.71 108.782 108.824 108.869C108.71 108.782 108.597 108.693 108.485 108.602ZM108.118 108.29C107.655 107.885 107.219 107.45 106.813 106.988C107.219 107.45 107.655 107.885 108.118 108.29ZM106.158 106.184C106.353 106.443 106.557 106.694 106.77 106.939C106.557 106.694 106.353 106.443 106.158 106.184ZM130.501 102.393C130.556 102.235 130.609 102.076 130.659 101.915C130.609 102.076 130.556 102.235 130.501 102.393ZM130.844 101.269C130.801 101.437 130.752 101.603 130.703 101.769C130.757 101.588 130.809 101.406 130.855 101.222L130.844 101.269ZM103.689 100.867C103.738 101.084 103.793 101.298 103.852 101.511C103.793 101.298 103.738 101.084 103.689 100.867ZM131.123 99.8908C131.078 100.187 131.024 100.48 130.961 100.77C131.024 100.48 131.078 100.187 131.123 99.8908ZM103.502 99.8674C103.434 99.4174 103.389 98.9603 103.365 98.4973V98.4865C103.389 98.9532 103.434 99.4139 103.502 99.8674ZM103.154 66.3879C103.281 67.815 103.347 69.2628 103.347 70.7278V70.7287C103.347 69.2635 103.281 67.8152 103.154 66.3879ZM102.915 64.2385C102.942 64.4372 102.965 64.6366 102.989 64.8362C102.965 64.6366 102.942 64.4372 102.915 64.2385ZM102.769 63.2297C102.776 63.2769 102.783 63.3241 102.79 63.3713C102.783 63.3241 102.776 63.2769 102.769 63.2297ZM102.589 62.1604C102.603 62.2407 102.617 62.3211 102.631 62.4016C102.617 62.3211 102.603 62.2407 102.589 62.1604ZM102.395 61.1389C102.433 61.3316 102.469 61.5252 102.506 61.719C102.469 61.5252 102.433 61.3316 102.395 61.1389ZM0.77832 59.9221C0.697304 60.4716 0.622537 61.0221 0.553711 61.5735C0.588114 61.2979 0.623678 61.0224 0.661133 60.7473L0.77832 59.9221ZM102.175 60.1096C102.216 60.2909 102.253 60.4732 102.292 60.6555C102.253 60.4732 102.216 60.2909 102.175 60.1096ZM101.941 59.1203C101.98 59.2744 102.015 59.4294 102.052 59.5842C102.015 59.4294 101.98 59.2744 101.941 59.1203ZM101.678 58.1067C101.707 58.2135 101.734 58.3208 101.763 58.4279C101.734 58.3208 101.707 58.2135 101.678 58.1067ZM101.396 57.1154C101.442 57.2686 101.485 57.4225 101.528 57.5764C101.485 57.4225 101.442 57.2686 101.396 57.1154ZM101.081 56.091C101.139 56.2726 101.195 56.4552 101.251 56.6379C101.195 56.4552 101.139 56.2726 101.081 56.091ZM100.756 55.1164C100.825 55.3171 100.892 55.5188 100.959 55.7209C100.892 55.5188 100.825 55.3171 100.756 55.1164ZM100.424 54.1887C100.493 54.3755 100.56 54.5631 100.627 54.7512C100.56 54.5631 100.493 54.3755 100.424 54.1887ZM100.061 53.2385C100.124 53.3994 100.186 53.561 100.248 53.7229C100.186 53.561 100.124 53.3994 100.061 53.2385ZM99.6826 52.3108C99.7452 52.4596 99.806 52.6093 99.8672 52.759C99.806 52.6093 99.7452 52.4596 99.6826 52.3108ZM99.2666 51.3547C99.3452 51.5301 99.4225 51.7063 99.499 51.883C99.4225 51.7063 99.3452 51.5301 99.2666 51.3547ZM98.8604 50.4738C98.9379 50.6372 99.0141 50.8014 99.0898 50.966C99.0141 50.8014 98.9379 50.6372 98.8604 50.4738ZM3.35547 48.5725C3.1919 49.1015 3.03391 49.6325 2.88184 50.1653C3.03391 49.6325 3.1919 49.1015 3.35547 48.5725ZM98.4141 49.5598C98.4955 49.7217 98.5747 49.8848 98.6543 50.0481C98.5747 49.8848 98.4955 49.7217 98.4141 49.5598ZM97.9619 48.6848C98.0458 48.8428 98.1278 49.002 98.21 49.1613C98.1278 49.002 98.0458 48.8428 97.9619 48.6848ZM97.4912 47.8215C97.5755 47.9721 97.6585 48.1237 97.7412 48.2756C97.6585 48.1237 97.5755 47.9721 97.4912 47.8215ZM96.9795 46.9319C97.0717 47.0879 97.1625 47.245 97.2529 47.4026C97.1625 47.245 97.0717 47.0879 96.9795 46.9319ZM96.4707 46.092C96.5785 46.2654 96.6845 46.4402 96.79 46.6154C96.6845 46.4402 96.5785 46.2654 96.4707 46.092ZM95.9268 45.2404C96.0355 45.4066 96.1433 45.5735 96.25 45.7414C96.1433 45.5735 96.0355 45.4066 95.9268 45.2404ZM95.4072 44.4651C95.5189 44.6279 95.6296 44.7916 95.7393 44.9563C95.6296 44.7916 95.5189 44.6279 95.4072 44.4651ZM94.8535 43.677C94.9534 43.8158 95.052 43.9557 95.1504 44.0959C95.052 43.9557 94.9534 43.8158 94.8535 43.677ZM94.2686 42.885C94.3752 43.0261 94.4809 43.1681 94.5859 43.3108C94.4809 43.1681 94.3752 43.0261 94.2686 42.885ZM93.707 42.1584C93.8009 42.2771 93.8936 42.3969 93.9863 42.5168C93.8936 42.3969 93.8009 42.2771 93.707 42.1584ZM93.083 41.3889C93.18 41.5057 93.2762 41.6234 93.3721 41.7414C93.2762 41.6234 93.18 41.5057 93.083 41.3889ZM92.415 40.6047C92.5407 40.7485 92.6652 40.8935 92.7891 41.0393C92.6652 40.8935 92.5407 40.7485 92.415 40.6047ZM124.462 39.5158C124.6 39.8196 124.737 40.1242 124.871 40.4299C124.737 40.1242 124.6 39.8196 124.462 39.5158ZM91.791 39.9065C91.9239 40.0517 92.0555 40.1985 92.1865 40.3459C92.0555 40.1985 91.9239 40.0517 91.791 39.9065ZM91.1523 39.2248C91.271 39.3486 91.3887 39.4734 91.5059 39.5988C91.3887 39.4734 91.271 39.3486 91.1523 39.2248ZM90.4707 38.5305C90.6004 38.6594 90.7293 38.7893 90.8574 38.9201C90.7293 38.7893 90.6004 38.6594 90.4707 38.5305ZM89.7725 37.8528C89.9101 37.9831 90.0466 38.1148 90.1826 38.2473C90.0466 38.1148 89.9101 37.9831 89.7725 37.8528ZM89.0674 37.2024C89.2167 37.3369 89.3652 37.4725 89.5127 37.6096C89.3652 37.4725 89.2167 37.3369 89.0674 37.2024ZM88.3584 36.5783C88.508 36.7067 88.6568 36.8362 88.8047 36.967C88.6568 36.8362 88.508 36.7067 88.3584 36.5783ZM87.6602 35.9944C87.8013 36.1098 87.9424 36.2254 88.082 36.343C87.9424 36.2254 87.8013 36.1098 87.6602 35.9944ZM45.3047 34.6789C44.7948 35.0499 44.2935 35.4347 43.8008 35.8322C44.2935 35.4347 44.7948 35.0499 45.3047 34.6789ZM86.9414 35.4201C87.073 35.5226 87.2045 35.6254 87.335 35.7297C87.2045 35.6254 87.073 35.5226 86.9414 35.4201ZM121.737 34.1203C121.957 34.5152 122.173 34.9127 122.386 35.3117C122.173 34.9127 121.957 34.5152 121.737 34.1203ZM86.1807 34.844C86.3151 34.9433 86.4497 35.0425 86.583 35.1438C86.4497 35.0426 86.3151 34.9433 86.1807 34.844ZM85.4287 34.3029C85.5658 34.399 85.703 34.495 85.8389 34.593C85.703 34.495 85.5658 34.399 85.4287 34.3029ZM84.6328 33.76C84.7767 33.8554 84.9208 33.9506 85.0635 34.0481C84.9208 33.9506 84.7767 33.8554 84.6328 33.76ZM83.8936 33.2824C84.0273 33.3666 84.1612 33.4504 84.2939 33.5363C84.1612 33.4504 84.0273 33.3666 83.8936 33.2824ZM83.1348 32.8176C83.2449 32.8832 83.3554 32.9481 83.4648 33.0149C83.3554 32.9481 83.2449 32.8832 83.1348 32.8176ZM82.3125 32.342C82.4306 32.4082 82.5486 32.4746 82.666 32.5422C82.5486 32.4746 82.4306 32.4082 82.3125 32.342ZM81.4561 31.8772C81.5946 31.9499 81.7334 32.0223 81.8711 32.0969C81.7334 32.0223 81.5946 31.9499 81.4561 31.8772ZM80.6416 31.4631C80.7739 31.5283 80.9066 31.5925 81.0381 31.6594C80.9066 31.5925 80.7739 31.5283 80.6416 31.4631ZM79.7285 31.0295C79.8893 31.1031 80.0503 31.1762 80.21 31.2522C80.0503 31.1762 79.8893 31.1031 79.7285 31.0295ZM78.8916 30.6594C79.0589 30.7307 79.2264 30.8013 79.3926 30.8752C79.2264 30.8013 79.0589 30.7307 78.8916 30.6594ZM78.0195 30.302C78.1825 30.3663 78.3459 30.4296 78.5078 30.4963C78.3459 30.4296 78.1825 30.3663 78.0195 30.302ZM77.1279 29.9631C77.3078 30.0283 77.4874 30.0941 77.666 30.1623C77.4874 30.0941 77.3078 30.0283 77.1279 29.9631ZM76.0928 29.6057C76.3247 29.6815 76.5561 29.7584 76.7861 29.8391C76.5561 29.7584 76.3247 29.6815 76.0928 29.6057ZM75.2578 29.3459C75.4841 29.4135 75.71 29.4817 75.9346 29.5539C75.71 29.4817 75.4841 29.4135 75.2578 29.3459ZM74.5361 29.1389C74.6935 29.1821 74.8512 29.2243 75.0078 29.2697C74.8512 29.2243 74.6935 29.1821 74.5361 29.1389ZM58.0312 28.8069H58.0322H58.0312ZM73.4385 28.8567C73.6526 28.9078 73.8663 28.9596 74.0791 29.0149C73.8663 28.9596 73.6526 28.9078 73.4385 28.8567ZM72.3047 28.6047C72.6103 28.6666 72.9147 28.7327 73.2178 28.8029C72.9147 28.7327 72.6103 28.6666 72.3047 28.6047ZM70.6816 28.3195C70.9025 28.3531 71.1231 28.3862 71.3428 28.424C71.1231 28.3862 70.9025 28.3531 70.6816 28.3195ZM68.5928 28.0676C69.206 28.1216 69.8152 28.1916 70.4199 28.2785C69.8152 28.1916 69.206 28.1216 68.5928 28.0676ZM67.7168 28.0022C67.9887 28.019 68.2599 28.0375 68.5303 28.0608C68.2599 28.0375 67.9887 28.019 67.7168 28.0022ZM67.2578 27.9778C67.0409 27.9673 66.8233 27.9576 66.6055 27.9514C66.8234 27.9576 67.0408 27.9673 67.2578 27.9778ZM105.033 14.0031C105.457 14.3493 105.877 14.7003 106.292 15.0569C105.877 14.7003 105.457 14.3493 105.033 14.0031ZM102.438 11.9924H102.438H102.438ZM99.7363 10.1135H99.7373H99.7363ZM91.7871 5.68381H91.7881H91.7871ZM78.9395 1.39084C81.4835 1.93576 83.9544 2.63394 86.3477 3.47385H86.3467C86.0806 3.38049 85.8138 3.2883 85.5459 3.19846C85.0103 3.01886 84.4709 2.84624 83.9277 2.68088C83.3847 2.51555 82.8376 2.35808 82.2871 2.20724C81.1859 1.90553 80.0699 1.63298 78.9395 1.39084ZM50.6396 1.77658C50.1405 1.89833 49.6446 2.0268 49.1514 2.16037C49.6446 2.0268 50.1405 1.89833 50.6396 1.77658ZM61.0049 0.164276C60.4262 0.205359 59.8507 0.253502 59.2783 0.309784C59.8507 0.253502 60.4262 0.205359 61.0049 0.164276ZM68.3848 0.0578308C68.992 0.0832387 69.5958 0.117362 70.1963 0.159393C69.5958 0.117359 68.992 0.0832424 68.3848 0.0578308ZM62.8369 0.0597839C62.2623 0.0842125 61.6907 0.116163 61.1221 0.155487C61.6907 0.116163 62.2623 0.0842125 62.8369 0.0597839ZM17.9121 164.254C17.8484 164.273 17.7848 164.292 17.7207 164.31C17.7848 164.292 17.8484 164.273 17.9121 164.254ZM9.80762 164.2C9.71774 164.173 9.62816 164.144 9.53906 164.114C9.62816 164.144 9.71774 164.173 9.80762 164.2ZM18.6221 164.024C18.5362 164.054 18.4499 164.084 18.3633 164.113C18.4499 164.084 18.5362 164.054 18.6221 164.024ZM21.8799 162.357C21.8068 162.407 21.7333 162.457 21.6592 162.506C21.7333 162.457 21.8068 162.407 21.8799 162.357ZM21.6045 162.541C21.5313 162.589 21.4579 162.637 21.3838 162.684C21.4579 162.637 21.5313 162.589 21.6045 162.541ZM22.9023 161.578C22.848 161.624 22.7933 161.669 22.7383 161.713C22.7933 161.669 22.848 161.624 22.9023 161.578ZM24.1406 160.408C24.0784 160.475 24.0156 160.541 23.9521 160.606C24.0156 160.541 24.0784 160.475 24.1406 160.408ZM3.91309 160.571C3.85719 160.513 3.80197 160.454 3.74707 160.396C3.80197 160.454 3.8572 160.513 3.91309 160.571ZM3.48438 160.108C3.42353 160.039 3.36321 159.97 3.30371 159.9C3.36321 159.97 3.42353 160.039 3.48438 160.108ZM24.999 159.403C24.9438 159.474 24.8876 159.544 24.8311 159.614C24.8876 159.544 24.9438 159.474 24.999 159.403ZM25.9336 158.036C25.8874 158.113 25.8406 158.19 25.793 158.266C25.8406 158.19 25.8874 158.113 25.9336 158.036ZM26.417 157.16C26.3739 157.246 26.33 157.33 26.2852 157.414C26.33 157.33 26.3739 157.246 26.417 157.16ZM26.2646 157.451C26.2211 157.533 26.1769 157.613 26.1318 157.694C26.1769 157.613 26.2211 157.533 26.2646 157.451ZM1.26367 156.709C1.2382 156.654 1.21325 156.599 1.18848 156.543C1.21324 156.599 1.2382 156.654 1.26367 156.709ZM0.774414 155.506C0.786235 155.54 0.797502 155.573 0.80957 155.607C0.797501 155.573 0.786235 155.54 0.774414 155.506ZM0.669922 155.197C0.643963 155.118 0.618314 155.038 0.59375 154.958C0.618312 155.038 0.643965 155.118 0.669922 155.197ZM27.5635 153.995C27.545 154.076 27.5257 154.156 27.5059 154.236C27.5257 154.156 27.545 154.076 27.5635 153.995ZM0.464844 154.51C0.446347 154.442 0.428611 154.373 0.411133 154.304C0.42861 154.373 0.446348 154.442 0.464844 154.51ZM27.8057 152.629C27.7939 152.722 27.7811 152.814 27.7676 152.906C27.7811 152.814 27.7939 152.722 27.8057 152.629ZM0 151.576V151.571C0.00357479 151.642 0.0080608 151.713 0.0126953 151.783C0.00818747 151.715 0.00350539 151.646 0 151.576ZM0.0126953 151.783C0.015871 151.832 0.0178141 151.881 0.0214844 151.929C0.0178139 151.881 0.0158713 151.832 0.0126953 151.783ZM121.929 110.965C121.862 110.988 121.795 111.011 121.729 111.033C121.795 111.011 121.862 110.988 121.929 110.965ZM109.313 109.228C109.271 109.198 109.228 109.167 109.186 109.137C109.228 109.167 109.271 109.198 109.313 109.228ZM108.251 108.405C108.22 108.379 108.189 108.353 108.158 108.326C108.189 108.353 108.22 108.379 108.251 108.405ZM105.954 105.906C105.902 105.834 105.852 105.761 105.802 105.688C105.852 105.761 105.902 105.834 105.954 105.906ZM105.232 104.79C105.195 104.726 105.158 104.661 105.121 104.596C105.158 104.661 105.195 104.726 105.232 104.79ZM129.771 104.102C129.735 104.173 129.698 104.245 129.66 104.316C129.698 104.245 129.735 104.173 129.771 104.102ZM130.072 103.472C130.034 103.559 129.995 103.645 129.954 103.731C129.995 103.645 130.034 103.559 130.072 103.472ZM130.319 102.884C130.292 102.954 130.263 103.024 130.234 103.094C130.263 103.024 130.292 102.954 130.319 102.884ZM103.916 101.735C103.894 101.66 103.872 101.586 103.852 101.511C103.872 101.586 103.894 101.66 103.916 101.735ZM103.582 100.342C103.594 100.405 103.606 100.468 103.618 100.531C103.606 100.468 103.594 100.405 103.582 100.342ZM103.655 100.706C103.667 100.76 103.677 100.814 103.689 100.867C103.677 100.814 103.667 100.76 103.655 100.706ZM131.171 99.5539C131.162 99.6255 131.151 99.6966 131.141 99.7678C131.151 99.6966 131.162 99.6255 131.171 99.5539ZM103.528 100.031C103.519 99.9768 103.51 99.9222 103.502 99.8674C103.51 99.9222 103.519 99.9768 103.528 100.031ZM71.6133 28.4738C71.8444 28.5156 72.075 28.5582 72.3047 28.6047C72.075 28.5582 71.8444 28.5156 71.6133 28.4738Z" fill="#202020"/>
<path d="M165.566 0.148436C166.231 0.0515297 166.91 7.99923e-06 167.601 -1.21956e-06C168.064 -1.17907e-06 168.522 0.0233195 168.974 0.0673817C168.522 0.0233466 168.065 0.00100084 167.602 0.000975343C166.91 0.000975283 166.231 0.0514816 165.566 0.148436ZM169.923 0.194335C169.622 0.143974 169.318 0.102076 169.011 0.071288C169.318 0.102077 169.622 0.143971 169.923 0.194335ZM172.293 0.80957C172.2 0.776271 172.106 0.743268 172.012 0.711913C172.106 0.743269 172.2 0.77627 172.293 0.80957ZM115.919 163.826C77.1314 163.826 51.2685 129.325 51.2676 94.0986L51.2676 67.0488C51.2676 59.8866 57.0742 54.0801 64.2363 54.0801C71.3982 54.0804 77.2041 59.8869 77.2041 67.0488L77.2041 94.0986C77.205 118.16 94.4232 137.89 115.919 137.89C137.414 137.889 154.632 118.16 154.633 94.0986L154.633 13.9687C154.633 6.80671 160.44 1.00097 167.602 1.00098C174.763 1.0014 180.569 6.80698 180.569 13.9687L180.569 94.0986L180.564 94.9238C180.164 129.862 154.403 163.826 115.919 163.826ZM155.396 7.17187C155.091 7.71873 154.822 8.28797 154.591 8.87695C154.822 8.28796 155.091 7.71875 155.396 7.17187ZM180.637 8.94141C180.558 8.73821 180.475 8.53735 180.388 8.33887C180.475 8.53735 180.558 8.73821 180.637 8.94141ZM154.433 9.30469C154.371 9.479 154.312 9.65461 154.257 9.83203C154.312 9.6546 154.371 9.47901 154.433 9.30469ZM154.065 10.5098C154.111 10.3312 154.161 10.1543 154.213 9.97851C154.161 10.1543 154.111 10.3312 154.065 10.5098ZM153.792 11.8584C153.838 11.5552 153.894 11.2554 153.959 10.959C153.894 11.2554 153.838 11.5552 153.792 11.8584ZM181.511 12.6914C181.487 12.4315 181.457 12.1736 181.419 11.918C181.457 12.1736 181.487 12.4315 181.511 12.6914ZM153.638 13.6084C153.646 13.2935 153.665 12.9813 153.693 12.6719C153.665 12.9812 153.646 13.2936 153.638 13.6084ZM63.0469 53.1308C63.4387 53.0978 63.835 53.0801 64.2354 53.0801L64.2363 53.081C63.8358 53.081 63.4389 53.0978 63.0469 53.1308ZM65.4766 53.1357C65.1857 53.1101 64.8924 53.0925 64.5967 53.085L64.5967 53.084C64.8924 53.0915 65.1857 53.1101 65.4766 53.1357ZM67.5684 53.4814C67.3797 53.4352 67.1897 53.3919 66.9981 53.3535C67.1897 53.3919 67.3797 53.4352 67.5684 53.4814ZM73.0654 56.2246C72.954 56.1336 72.8408 56.0446 72.7266 55.957C72.8408 56.0446 72.954 56.1336 73.0654 56.2246ZM73.4326 56.5361C73.8955 56.9414 74.3315 57.3765 74.7373 57.8389C74.3315 57.3765 73.8955 56.9414 73.4326 56.5361ZM75.3926 58.6426C75.1974 58.3839 74.9936 58.1319 74.7813 57.8877C74.9936 58.1319 75.1974 58.3839 75.3926 58.6426ZM77.3858 62.3271C77.3225 62.151 77.2556 61.9765 77.1856 61.8037C77.2556 61.9765 77.3225 62.151 77.3858 62.3271ZM51.0498 62.4336C50.9945 62.5916 50.9413 62.7506 50.8916 62.9111C50.9413 62.7506 50.9945 62.5916 51.0498 62.4336ZM50.707 63.5576C50.7503 63.3895 50.7984 63.2232 50.8477 63.0576C50.7938 63.2385 50.742 63.4206 50.6953 63.6045L50.707 63.5576ZM77.8613 63.959C77.8125 63.7425 77.758 63.528 77.6992 63.3154C77.758 63.528 77.8125 63.7425 77.8613 63.959ZM50.4277 64.9355C50.4727 64.6394 50.5266 64.3464 50.5899 64.0566C50.5266 64.3464 50.4727 64.6394 50.4277 64.9355ZM78.0488 64.959C78.1163 65.409 78.1621 65.8661 78.1856 66.3291L78.1856 66.3398C78.1623 65.8732 78.1168 65.4125 78.0488 64.959ZM78.3965 98.4385C78.3176 97.5497 78.2646 96.653 78.2344 95.749C78.2646 96.653 78.3176 97.5497 78.3965 98.4385ZM78.6357 100.588C78.6091 100.389 78.5858 100.19 78.5615 99.9902C78.5858 100.19 78.6091 100.389 78.6357 100.588ZM78.7822 101.597C78.7749 101.55 78.768 101.502 78.7607 101.455C78.768 101.502 78.7749 101.55 78.7822 101.597ZM78.9619 102.666C78.9475 102.586 78.9339 102.505 78.9199 102.425C78.9339 102.505 78.9475 102.586 78.9619 102.666ZM79.1563 103.687C79.1174 103.495 79.0815 103.301 79.0449 103.107C79.0815 103.301 79.1174 103.495 79.1563 103.687ZM79.376 104.717C79.3352 104.535 79.2976 104.353 79.2588 104.171C79.2976 104.353 79.3352 104.535 79.376 104.717ZM79.6094 105.706C79.5712 105.552 79.5357 105.397 79.499 105.242C79.5357 105.397 79.5712 105.552 79.6094 105.706ZM79.8731 106.72C79.844 106.613 79.8164 106.506 79.7881 106.398C79.8164 106.506 79.844 106.613 79.8731 106.72ZM180.511 106.55C180.418 107.097 180.319 107.643 180.214 108.188C180.266 107.916 180.317 107.643 180.366 107.37L180.511 106.55ZM80.1543 107.711C80.109 107.558 80.0662 107.404 80.0225 107.25C80.0662 107.404 80.109 107.558 80.1543 107.711ZM80.4697 108.735C80.4115 108.554 80.3559 108.371 80.2998 108.188C80.3559 108.371 80.4115 108.554 80.4697 108.735ZM80.7949 109.71C80.7256 109.509 80.6585 109.308 80.5918 109.105C80.6585 109.308 80.7256 109.509 80.7949 109.71ZM81.127 110.638C81.0579 110.451 80.9906 110.263 80.9238 110.075C80.9906 110.263 81.0579 110.451 81.127 110.638ZM81.4902 111.588C81.4267 111.427 81.3646 111.265 81.3027 111.104C81.3646 111.265 81.4267 111.427 81.4902 111.588ZM81.8682 112.516C81.8055 112.367 81.7448 112.217 81.6836 112.067C81.7448 112.217 81.8055 112.367 81.8682 112.516ZM82.2842 113.472C82.2056 113.296 82.1283 113.12 82.0518 112.943C82.1283 113.12 82.2056 113.296 82.2842 113.472ZM82.6904 114.353C82.6129 114.189 82.5366 114.025 82.4609 113.86C82.5366 114.025 82.6129 114.189 82.6904 114.353ZM178.195 116.254C178.359 115.725 178.517 115.194 178.669 114.661C178.517 115.194 178.359 115.725 178.195 116.254ZM83.1367 115.267C83.0553 115.105 82.9761 114.942 82.8965 114.778C82.9761 114.942 83.0553 115.105 83.1367 115.267ZM83.5889 116.142C83.505 115.984 83.4229 115.824 83.3408 115.665C83.4229 115.824 83.505 115.984 83.5889 116.142ZM84.0596 117.005C83.9753 116.854 83.8923 116.703 83.8096 116.551C83.8923 116.703 83.9753 116.854 84.0596 117.005ZM84.5713 117.895C84.4791 117.738 84.3883 117.581 84.2979 117.424C84.3883 117.581 84.4791 117.738 84.5713 117.895ZM85.0801 118.734C84.9723 118.561 84.8663 118.386 84.7607 118.211C84.8663 118.386 84.9723 118.561 85.0801 118.734ZM85.624 119.586C85.5153 119.42 85.4074 119.253 85.3008 119.085C85.4074 119.253 85.5153 119.42 85.624 119.586ZM86.1436 120.361C86.0319 120.199 85.9212 120.035 85.8115 119.87C85.9212 120.035 86.0319 120.199 86.1436 120.361ZM86.6973 121.149C86.5973 121.011 86.4988 120.871 86.4004 120.73C86.4988 120.871 86.5973 121.011 86.6973 121.149ZM87.2822 121.941C87.1756 121.8 87.0699 121.658 86.9648 121.516C87.0699 121.658 87.1756 121.8 87.2822 121.941ZM87.874 122.706C87.7699 122.575 87.6671 122.442 87.5645 122.31C87.6671 122.442 87.7699 122.575 87.874 122.706ZM88.5137 123.493C88.391 123.346 88.2693 123.198 88.1484 123.049C88.2693 123.198 88.391 123.346 88.5137 123.493ZM89.1357 124.222C89.0063 124.074 88.8775 123.925 88.75 123.774C88.8775 123.925 89.0063 124.074 89.1357 124.222ZM57.1953 125.546C57.0199 125.164 56.8488 124.781 56.6797 124.396C56.8488 124.781 57.0199 125.164 57.1953 125.546ZM89.7598 124.92C89.6268 124.775 89.4953 124.628 89.3643 124.48C89.4953 124.628 89.6268 124.775 89.7598 124.92ZM90.3984 125.602C90.2798 125.478 90.1621 125.353 90.0449 125.228C90.1621 125.353 90.2798 125.478 90.3984 125.602ZM91.0801 126.296C90.9504 126.167 90.8215 126.037 90.6934 125.906C90.8215 126.037 90.9504 126.167 91.0801 126.296ZM91.7783 126.974C91.6406 126.843 91.5042 126.712 91.3682 126.579C91.5042 126.712 91.6406 126.843 91.7783 126.974ZM58.2686 127.783L58.2695 127.783L58.2686 127.783ZM92.4482 127.593C92.3128 127.47 92.1779 127.347 92.0439 127.223C92.1779 127.347 92.3128 127.47 92.4482 127.593ZM93.1807 128.238C93.044 128.121 92.9076 128.003 92.7725 127.884C92.9076 128.003 93.044 128.121 93.1807 128.238ZM93.8906 128.832C93.7495 128.717 93.6084 128.601 93.4688 128.483C93.6084 128.601 93.7495 128.717 93.8906 128.832ZM136.246 130.147C136.756 129.777 137.257 129.392 137.75 128.994C137.257 129.392 136.756 129.777 136.246 130.147ZM94.6094 129.406C94.4777 129.304 94.3462 129.201 94.2158 129.097C94.3462 129.201 94.4777 129.304 94.6094 129.406ZM59.8135 130.706C59.5935 130.311 59.3779 129.914 59.165 129.515C59.3779 129.914 59.5935 130.311 59.8135 130.706ZM95.3701 129.982C95.2357 129.883 95.101 129.784 94.9678 129.683C95.101 129.784 95.2357 129.883 95.3701 129.982ZM96.1221 130.523C95.985 130.427 95.8478 130.331 95.7119 130.233C95.8478 130.331 95.985 130.427 96.1221 130.523ZM96.8799 131.042C96.75 130.956 96.6201 130.869 96.4912 130.781C96.6201 130.869 96.75 130.956 96.8799 131.042ZM97.6377 131.532C97.5178 131.457 97.3974 131.382 97.2783 131.305C97.3974 131.382 97.5178 131.457 97.6377 131.532ZM98.416 132.009C98.3059 131.943 98.1954 131.878 98.0859 131.812C98.1954 131.878 98.3059 131.943 98.416 132.009ZM99.2383 132.484C99.1202 132.418 99.0022 132.352 98.8848 132.284C99.0022 132.352 99.1202 132.418 99.2383 132.484ZM100.095 132.949C99.9562 132.876 99.8173 132.804 99.6797 132.729C99.8173 132.804 99.9562 132.876 100.095 132.949ZM100.909 133.363C100.777 133.298 100.644 133.234 100.513 133.167C100.644 133.234 100.777 133.298 100.909 133.363ZM101.822 133.797C101.661 133.723 101.5 133.65 101.341 133.574C101.5 133.65 101.661 133.723 101.822 133.797ZM102.659 134.167C102.492 134.096 102.324 134.025 102.158 133.951C102.324 134.025 102.492 134.096 102.659 134.167ZM103.531 134.524C103.368 134.46 103.205 134.397 103.043 134.33C103.205 134.397 103.368 134.46 103.531 134.524ZM104.423 134.863C104.243 134.798 104.063 134.732 103.885 134.664C104.063 134.732 104.243 134.798 104.423 134.863ZM105.458 135.221C105.226 135.145 104.995 135.068 104.765 134.987C104.995 135.068 105.226 135.145 105.458 135.221ZM106.293 135.48C106.067 135.413 105.841 135.345 105.616 135.272C105.841 135.345 106.067 135.413 106.293 135.48ZM107.015 135.687C106.857 135.644 106.7 135.602 106.543 135.557C106.7 135.602 106.857 135.644 107.015 135.687ZM123.52 136.02L123.519 136.02L123.52 136.02ZM108.112 135.97C107.898 135.919 107.684 135.867 107.472 135.812C107.684 135.867 107.898 135.919 108.112 135.97ZM109.246 136.222C108.94 136.16 108.636 136.094 108.333 136.023C108.636 136.094 108.94 136.16 109.246 136.222ZM110.869 136.507C110.648 136.473 110.428 136.44 110.208 136.402C110.428 136.44 110.648 136.473 110.869 136.507ZM112.958 136.759C112.345 136.705 111.736 136.635 111.131 136.548C111.736 136.635 112.345 136.705 112.958 136.759ZM113.834 136.824C113.562 136.807 113.291 136.789 113.021 136.766C113.291 136.789 113.562 136.807 113.834 136.824ZM114.945 136.876L114.945 136.875L114.945 136.876ZM64.2227 137.667L64.2217 137.667L64.2227 137.667ZM165.639 140.296L165.638 140.296L165.639 140.296ZM71.6504 146.427L71.6494 146.427L71.6504 146.427ZM73.4238 148.131L73.4229 148.131L73.4238 148.131ZM76.5176 150.823C76.0936 150.477 75.6738 150.126 75.2588 149.77C75.6738 150.126 76.0936 150.477 76.5176 150.823ZM79.1133 152.834L79.1123 152.834L79.1133 152.834ZM146.503 156.865L146.503 156.864L146.503 156.865ZM89.7637 159.143L89.7627 159.143L89.7637 159.143ZM97.623 162.146C96.8078 161.897 96.0012 161.633 95.2031 161.353L95.2041 161.353C95.4701 161.446 95.7369 161.538 96.0049 161.628C96.5405 161.808 97.0799 161.98 97.623 162.146ZM131.078 163.008C131.521 162.898 131.961 162.785 132.399 162.666C131.961 162.785 131.521 162.898 131.078 163.008ZM102.611 163.436L102.61 163.436L102.611 163.436ZM128.375 163.612L128.375 163.611L128.375 163.612ZM118.714 164.766C119.288 164.741 119.86 164.71 120.429 164.671C119.86 164.71 119.288 164.741 118.714 164.766ZM163.639 0.572264C163.702 0.55346 163.766 0.534517 163.83 0.5166C163.766 0.534518 163.702 0.55346 163.639 0.572264ZM171.743 0.625976C171.833 0.653849 171.923 0.682283 172.012 0.711913C171.923 0.682284 171.833 0.653849 171.743 0.625976ZM162.929 0.802733C163.015 0.772256 163.101 0.7427 163.188 0.713866C163.101 0.742701 163.015 0.772256 162.929 0.802733ZM159.671 2.46972C159.744 2.41924 159.818 2.36943 159.892 2.32031C159.818 2.36943 159.744 2.41924 159.671 2.46972ZM159.946 2.28515C160.02 2.2371 160.093 2.18928 160.167 2.14258C160.093 2.18928 160.02 2.2371 159.946 2.28515ZM158.648 3.24804C158.703 3.20265 158.758 3.15786 158.813 3.11328C158.758 3.15785 158.703 3.20266 158.648 3.24804ZM157.197 4.64941C157.252 4.58832 157.307 4.52788 157.363 4.46777C157.307 4.52788 157.252 4.58832 157.197 4.64941ZM157.418 4.41015C157.478 4.3462 157.538 4.28254 157.6 4.21972C157.538 4.28254 157.478 4.3462 157.418 4.41015ZM177.638 4.25586C177.694 4.3136 177.749 4.37196 177.804 4.43066C177.749 4.37196 177.694 4.3136 177.638 4.25586ZM178.066 4.71875C178.127 4.78754 178.188 4.85677 178.247 4.92676C178.188 4.85677 178.127 4.78754 178.066 4.71875ZM156.552 5.42383C156.607 5.35254 156.663 5.28209 156.72 5.21191C156.663 5.28209 156.607 5.35254 156.552 5.42383ZM155.617 6.79004C155.663 6.71307 155.71 6.63653 155.758 6.56054C155.71 6.63653 155.663 6.71308 155.617 6.79004ZM180.287 8.11719C180.313 8.17231 180.338 8.22769 180.362 8.2832C180.338 8.22769 180.313 8.17231 180.287 8.11719ZM180.776 9.32031C180.765 9.28681 180.753 9.25312 180.741 9.21973C180.753 9.25312 180.765 9.28681 180.776 9.32031ZM180.881 9.62891C180.907 9.70839 180.932 9.78806 180.957 9.86816C180.932 9.78806 180.907 9.70839 180.881 9.62891ZM153.987 10.8311C154.006 10.7507 154.025 10.6706 154.045 10.5908C154.025 10.6706 154.006 10.7507 153.987 10.8311ZM181.086 10.3164C181.104 10.3849 181.122 10.4536 181.14 10.5225C181.122 10.4536 181.104 10.3849 181.086 10.3164ZM153.745 12.1973C153.757 12.1045 153.77 12.0121 153.783 11.9199C153.77 12.0121 153.757 12.1045 153.745 12.1973ZM181.551 13.25L181.551 13.2559C181.547 13.1847 181.543 13.1138 181.538 13.043C181.543 13.1119 181.547 13.1808 181.551 13.25ZM181.538 13.043C181.535 12.9944 181.533 12.9459 181.529 12.8975C181.533 12.9459 181.535 12.9944 181.538 13.043ZM59.6221 53.8613C59.6886 53.838 59.7553 53.8152 59.8223 53.793C59.7553 53.8152 59.6886 53.838 59.6221 53.8613ZM72.2373 55.5986C72.2802 55.6286 72.3227 55.659 72.3652 55.6894C72.3227 55.659 72.2802 55.6286 72.2373 55.5986ZM73.2998 56.4209C73.3307 56.4473 73.3619 56.4733 73.3926 56.5C73.3619 56.4733 73.3307 56.4473 73.2998 56.4209ZM75.5967 58.9199C75.6484 58.9921 75.6986 59.0654 75.749 59.1387C75.6986 59.0654 75.6484 58.9921 75.5967 58.9199ZM51.7793 60.7246C51.8158 60.6529 51.853 60.5817 51.8906 60.5107C51.853 60.5817 51.8158 60.6529 51.7793 60.7246ZM51.4785 61.3545C51.5173 61.2678 51.5563 61.1814 51.5967 61.0957C51.5563 61.1814 51.5173 61.2678 51.4785 61.3545ZM51.2315 61.9424C51.2591 61.872 51.2877 61.8022 51.3164 61.7324C51.2877 61.8022 51.2591 61.872 51.2315 61.9424ZM77.6348 63.0918C77.6567 63.1661 77.6785 63.2406 77.6992 63.3154C77.6785 63.2406 77.6567 63.1661 77.6348 63.0918ZM77.9688 64.4844C77.957 64.4211 77.9452 64.3579 77.9326 64.2949C77.9452 64.3579 77.957 64.4211 77.9688 64.4844ZM77.8955 64.1201C77.8841 64.0664 77.8734 64.0125 77.8613 63.959C77.8734 64.0125 77.8841 64.0664 77.8955 64.1201ZM50.3799 65.2724C50.389 65.2009 50.4 65.1298 50.4102 65.0586C50.4 65.1298 50.389 65.2009 50.3799 65.2724ZM78.0225 64.7949C78.0313 64.8495 78.0406 64.9041 78.0488 64.959C78.0406 64.9041 78.0313 64.8495 78.0225 64.7949ZM109.938 136.353C109.706 136.311 109.476 136.268 109.246 136.222C109.476 136.268 109.706 136.311 109.938 136.353Z" fill="#202020"/>
</svg>
